<svg id="Layer_1" data-name="Layer 1" xmlns="http://www.w3.org/2000/svg" viewBox="20 20 506.12 94"><defs><style>.cls-1{fill:#fff;}</style></defs><path class="cls-1" d="M152.31,105.63h0a2.38,2.38,0,1,0,2.34,2.38A2.36,2.36,0,0,0,152.3,105.63Zm0,4.39a2,2,0,0,1,0-4h0a2,2,0,0,1,0,4Z"/><path class="cls-1" d="M152.73,108.09v0a.66.66,0,0,0,.52-.64.62.62,0,0,0-.25-.55,1.34,1.34,0,0,0-.82-.2,5.06,5.06,0,0,0-.75.06v2.65h.43v-1.14h.29a.49.49,0,0,1,.57.46,1.81,1.81,0,0,0,.18.68h.44a2.54,2.54,0,0,1-.17-.66C153.12,108.34,153,108.13,152.73,108.09Zm-.57-.17h-.3V107a1.74,1.74,0,0,1,.3,0c.48,0,.64.24.64.47S152.51,107.92,152.16,107.92Z"/><path class="cls-1" d="M77.33,28.34h0Z"/><path class="cls-1" d="M88.28,54.25V74.93H99.37l1.17-6.2h5c-1.83,9.46-11.23,16-23.16,16-.82,0-1.65,0-2.47-.09a32.78,32.78,0,0,1-17.1-6C57.93,75,55.36,70,55.39,64.35a21.11,21.11,0,0,1,7.27-15.86,27.14,27.14,0,0,1,16.78-6.56c.4,0,.81,0,1.21,0A34.67,34.67,0,0,1,102,49.74l.45.35s.08.06.43.34l.17.15h12.73V28.33h-12.9v6.38a49.22,49.22,0,0,0-25.59-7h-.17A44.75,44.75,0,0,0,45.62,41c-6.71,6.83-10.35,15.19-10.25,23.53.12,9,4.44,17.31,12.17,23.51A44.5,44.5,0,0,0,75,97.34c1.24,0,2.51,0,3.75-.15,10-.81,18.82-3.09,25.07-6.44l0,2.76h13.71V68.74h4.73V97.46h-7.14v12.92H147V97.46h-7.14V68.73H156l1.13,6.2h11.14V54.25Zm-11-25.91h0Z"/><path class="cls-1" d="M212.66,35.14a3.88,3.88,0,0,1,1.27.67.25.25,0,0,1,.09.2v1.68c0,.09,0,.13-.14.13h-1.26c-.09,0-.14,0-.14-.13v-.83a.13.13,0,0,0,0-.11,2.15,2.15,0,0,0-.67-.28,3,3,0,0,0-.8-.1,2.19,2.19,0,0,0-1.3.33,1.85,1.85,0,0,0-.68.94,4.14,4.14,0,0,0-.16.81,11.7,11.7,0,0,0-.06,1.38c0,.62,0,1.09,0,1.4a3.88,3.88,0,0,0,.14.75,1.76,1.76,0,0,0,.67.93,2.22,2.22,0,0,0,1.28.32,2.81,2.81,0,0,0,1.55-.34.37.37,0,0,0,.11-.09.23.23,0,0,0,0-.13V40.81c0-.06,0-.09-.08-.09H211c-.1,0-.14,0-.14-.14V39.46a.12.12,0,0,1,.14-.14h3a.13.13,0,0,1,.14.14v4a.34.34,0,0,1,0,.19.6.6,0,0,1-.14.15,4.83,4.83,0,0,1-1.39.66,6.44,6.44,0,0,1-1.75.23,4.34,4.34,0,0,1-2.31-.54,3,3,0,0,1-1.23-1.68,4.06,4.06,0,0,1-.19-1c0-.36,0-.92,0-1.68a16.32,16.32,0,0,1,.06-1.64,3.77,3.77,0,0,1,.21-1,3.09,3.09,0,0,1,1.28-1.72,4.38,4.38,0,0,1,2.37-.58A5.38,5.38,0,0,1,212.66,35.14Z"/><path class="cls-1" d="M220.56,38.15a2.59,2.59,0,0,1,1,1.37,4,4,0,0,1,.17.81,9.88,9.88,0,0,1,0,1.22c0,.09,0,.14-.15.14h-4.16a.07.07,0,0,0-.08.08,1.67,1.67,0,0,0,.66,1.28,1.68,1.68,0,0,0,.95.26,2,2,0,0,0,1.58-.64.14.14,0,0,1,.21,0l.82.73a.12.12,0,0,1,0,.19,3,3,0,0,1-1.16.84,4,4,0,0,1-1.61.31,3.15,3.15,0,0,1-1.8-.49,2.55,2.55,0,0,1-1-1.38,5.4,5.4,0,0,1-.23-1.65,5.5,5.5,0,0,1,.22-1.67,2.48,2.48,0,0,1,1-1.37,3.39,3.39,0,0,1,3.51,0ZM218,39.22a1.19,1.19,0,0,0-.49.63,2,2,0,0,0-.08.58.07.07,0,0,0,.08.08h2.65a.07.07,0,0,0,.08-.08,2,2,0,0,0-.08-.58,1.24,1.24,0,0,0-.49-.63,1.63,1.63,0,0,0-1.67,0Z"/><path class="cls-1" d="M227.93,38.15a2.49,2.49,0,0,1,1,1.37,4.64,4.64,0,0,1,.16.74,7.16,7.16,0,0,1,0,1.85,4.64,4.64,0,0,1-.16.74,2.49,2.49,0,0,1-1,1.37,3.06,3.06,0,0,1-1.76.49,3.09,3.09,0,0,1-1.77-.49,2.48,2.48,0,0,1-1-1.37,4.67,4.67,0,0,1-.17-.74,8.58,8.58,0,0,1,0-1.85,4.67,4.67,0,0,1,.17-.74,2.48,2.48,0,0,1,1-1.37,3.09,3.09,0,0,1,1.77-.49A3.06,3.06,0,0,1,227.93,38.15Zm-2.56,1.14a1.21,1.21,0,0,0-.47.65,2.5,2.5,0,0,0-.11.53,6.83,6.83,0,0,0,0,.72,7.1,7.1,0,0,0,0,.72,2.29,2.29,0,0,0,.11.52,1.39,1.39,0,0,0,2.06.65,1.41,1.41,0,0,0,.48-.65,3,3,0,0,0,.11-.52c0-.19,0-.43,0-.72s0-.54,0-.72a3.33,3.33,0,0,0-.11-.53,1.27,1.27,0,0,0-.47-.65,1.29,1.29,0,0,0-.8-.23A1.32,1.32,0,0,0,225.37,39.29Z"/><path class="cls-1" d="M235.18,37.78c.09,0,.14.07.14.14v1.22a.14.14,0,0,1,0,.12.15.15,0,0,1-.12,0,6.06,6.06,0,0,0-.83-.11,1.44,1.44,0,0,0-1.13.42,1.93,1.93,0,0,0-.38,1.31v2.2c0,.06,0,.09.08.09h.66c.1,0,.14,0,.14.14v1.09a.12.12,0,0,1-.14.14h-3a.12.12,0,0,1-.14-.14V43.33c0-.1,0-.14.14-.14h.6c.05,0,.08,0,.08-.09V39.27c0-.06,0-.09-.08-.09h-.6c-.1,0-.14,0-.14-.14V38a.12.12,0,0,1,.14-.14h2.11a.13.13,0,0,1,.14.14v.7h0a2,2,0,0,1,.67-.67,1.88,1.88,0,0,1,1-.27A3.51,3.51,0,0,1,235.18,37.78Z"/><path class="cls-1" d="M240.62,38.46h0V38a.12.12,0,0,1,.14-.14h2.11A.13.13,0,0,1,243,38V39a.12.12,0,0,1-.14.14h-.6a.08.08,0,0,0-.09.09v4.87a3.08,3.08,0,0,1-.8,2.28,3.18,3.18,0,0,1-2.35.81,3.74,3.74,0,0,1-1.39-.27,2.7,2.7,0,0,1-1.06-.73.21.21,0,0,1,0-.1s0-.06.06-.1l.82-.83.12-.05a.16.16,0,0,1,.09.05,2.08,2.08,0,0,0,1.47.63c1,0,1.52-.53,1.52-1.61v-.63h0a1.9,1.9,0,0,1-1.75.79,2.4,2.4,0,0,1-1.44-.42,2.34,2.34,0,0,1-.85-1.22,3.45,3.45,0,0,1-.18-.77,8.39,8.39,0,0,1-.05-.95,7.94,7.94,0,0,1,.05-.94,3.72,3.72,0,0,1,.18-.77,2.32,2.32,0,0,1,.85-1.23,2.4,2.4,0,0,1,1.44-.42A1.88,1.88,0,0,1,240.62,38.46Zm-2.53,1.45a3.52,3.52,0,0,0-.16,1.11,3.32,3.32,0,0,0,.16,1.1,1.26,1.26,0,0,0,2.39,0,3.08,3.08,0,0,0,.16-1.1,3.26,3.26,0,0,0-.16-1.11,1.27,1.27,0,0,0-2.39,0Z"/><path class="cls-1" d="M246.54,38V43.1a.08.08,0,0,0,.09.09h.6a.12.12,0,0,1,.14.14v1.09a.13.13,0,0,1-.14.14h-2.94a.13.13,0,0,1-.14-.14V43.33a.12.12,0,0,1,.14-.14h.6a.08.08,0,0,0,.09-.09V39.27a.08.08,0,0,0-.09-.09h-.6a.12.12,0,0,1-.14-.14V38a.13.13,0,0,1,.14-.14h2.11A.12.12,0,0,1,246.54,38Zm0-2.77V36.4a.12.12,0,0,1-.14.14h-1.28a.12.12,0,0,1-.14-.14V35.18a.12.12,0,0,1,.14-.14h1.28A.12.12,0,0,1,246.54,35.18Z"/><path class="cls-1" d="M253.47,38.2A2.3,2.3,0,0,1,254.1,40V43.1a.08.08,0,0,0,.09.09h.6a.12.12,0,0,1,.14.14v1.09a.13.13,0,0,1-.14.14h-2a.12.12,0,0,1-.14-.14v-.49h0a1.67,1.67,0,0,1-.72.57,2.85,2.85,0,0,1-1.15.21,2.41,2.41,0,0,1-1.62-.53,2.19,2.19,0,0,1,.07-3.16,3.19,3.19,0,0,1,2-.54h1.35c.05,0,.08,0,.08-.08v-.26a1.18,1.18,0,0,0-.3-.9,1.59,1.59,0,0,0-1.09-.28,3.53,3.53,0,0,0-.72.08.09.09,0,0,0-.07.1v.6a.12.12,0,0,1-.14.14h-1.22c-.1,0-.14,0-.14-.14V38.31a.2.2,0,0,1,.11-.18,5.23,5.23,0,0,1,2.25-.47A3.4,3.4,0,0,1,253.47,38.2Zm-3.12,3.69a.77.77,0,0,0-.35.7.73.73,0,0,0,.3.63,1.37,1.37,0,0,0,.85.22c1,0,1.47-.38,1.47-1.15v-.55a.07.07,0,0,0-.08-.08h-1.1A2.08,2.08,0,0,0,250.35,41.89Z"/><path class="cls-1" d="M266.79,35.18v2.24a.13.13,0,0,1-.14.14h-1.21a.13.13,0,0,1-.14-.14v-.84c0-.06,0-.09-.08-.09h-1.43c-.05,0-.08,0-.08.09V43.1c0,.06,0,.09.08.09h.73a.12.12,0,0,1,.14.14v1.09a.13.13,0,0,1-.14.14h-3.28a.13.13,0,0,1-.14-.14V43.33a.12.12,0,0,1,.14-.14H262a.08.08,0,0,0,.09-.09V36.58a.08.08,0,0,0-.09-.09h-1.43c-.05,0-.08,0-.08.09v.84a.13.13,0,0,1-.14.14h-1.2a.12.12,0,0,1-.14-.14V35.18a.12.12,0,0,1,.14-.14h7.53A.13.13,0,0,1,266.79,35.18Z"/><path class="cls-1" d="M271.2,38.15a2.64,2.64,0,0,1,1,1.37,4,4,0,0,1,.17.81c0,.29.05.7.05,1.22,0,.09-.05.14-.15.14h-4.16c-.06,0-.09,0-.09.08a1.65,1.65,0,0,0,.1.52,1.45,1.45,0,0,0,.56.76,1.71,1.71,0,0,0,.95.26,2.05,2.05,0,0,0,1.59-.64.14.14,0,0,1,.21,0l.82.73a.12.12,0,0,1,0,.19,3,3,0,0,1-1.17.84,3.92,3.92,0,0,1-1.61.31,3.11,3.11,0,0,1-1.79-.49,2.55,2.55,0,0,1-1-1.38,5.39,5.39,0,0,1-.24-1.65,5.48,5.48,0,0,1,.23-1.67,2.43,2.43,0,0,1,1-1.37,3,3,0,0,1,1.74-.49A3.09,3.09,0,0,1,271.2,38.15Zm-2.59,1.07a1.19,1.19,0,0,0-.49.63,1.72,1.72,0,0,0-.09.58s0,.08.09.08h2.64c.06,0,.09,0,.09-.08a1.72,1.72,0,0,0-.09-.58,1.14,1.14,0,0,0-.49-.63,1.39,1.39,0,0,0-.82-.23A1.43,1.43,0,0,0,268.61,39.22Z"/><path class="cls-1" d="M278.17,37.8a3.63,3.63,0,0,1,1,.39.2.2,0,0,1,.11.18v1.54a.13.13,0,0,1-.14.14H278a.13.13,0,0,1-.14-.14V39.3a.1.1,0,0,0-.07-.1,1.47,1.47,0,0,0-.36-.1,2.74,2.74,0,0,0-.5,0,1.28,1.28,0,0,0-1.38.88,5.65,5.65,0,0,0,0,2.5,1.29,1.29,0,0,0,1.38.87,2.17,2.17,0,0,0,.86-.12c.05,0,.07-.06.07-.1v-.63a.13.13,0,0,1,.14-.14h1.19a.13.13,0,0,1,.14.14V44a.18.18,0,0,1-.11.18,4.94,4.94,0,0,1-2.33.52,3.4,3.4,0,0,1-1.84-.46,2.46,2.46,0,0,1-1-1.36,5.56,5.56,0,0,1-.21-1.7,5.39,5.39,0,0,1,.21-1.67,2.53,2.53,0,0,1,1.05-1.38,3.27,3.27,0,0,1,1.82-.48A5.32,5.32,0,0,1,278.17,37.8Z"/><path class="cls-1" d="M283.07,35.18v3.26h0a1.79,1.79,0,0,1,.69-.57,2.47,2.47,0,0,1,1.06-.21,2.16,2.16,0,0,1,1.69.7,2.54,2.54,0,0,1,.64,1.8V43.1c0,.06,0,.09.08.09h.58a.12.12,0,0,1,.14.14v1.09a.13.13,0,0,1-.14.14H284.9a.13.13,0,0,1-.14-.14V43.33a.12.12,0,0,1,.14-.14h.61c.05,0,.08,0,.08-.09V40.53a1.66,1.66,0,0,0-.32-1.07,1.29,1.29,0,0,0-1.87,0,1.61,1.61,0,0,0-.33,1.07V43.1c0,.06,0,.09.08.09h.61a.12.12,0,0,1,.14.14v1.09a.13.13,0,0,1-.14.14h-2.94a.12.12,0,0,1-.14-.14V43.33c0-.1,0-.14.14-.14h.6c.05,0,.08,0,.08-.09V36.49a.07.07,0,0,0-.08-.08h-.6a.12.12,0,0,1-.14-.14V35.18a.12.12,0,0,1,.14-.14h2.11A.13.13,0,0,1,283.07,35.18Z"/><path class="cls-1" d="M299.23,35.61a.24.24,0,0,1,.11.2V37.7a.13.13,0,0,1-.14.14h-1.26a.12.12,0,0,1-.14-.14v-1a.12.12,0,0,0-.07-.11,2.84,2.84,0,0,0-.56-.18,2.9,2.9,0,0,0-.66-.07,2.24,2.24,0,0,0-1.29.31,1.82,1.82,0,0,0-.66,1,4.38,4.38,0,0,0-.14.75c0,.28,0,.76,0,1.42s0,1.16,0,1.44a3,3,0,0,0,.13.73,1.83,1.83,0,0,0,.65.94,2.26,2.26,0,0,0,1.31.32,3.17,3.17,0,0,0,1.22-.22.15.15,0,0,0,.07-.12v-1c0-.1,0-.15.14-.15h1.26c.09,0,.14,0,.14.15v1.9a.21.21,0,0,1-.11.19,5.32,5.32,0,0,1-2.87.73c-1.82,0-3-.74-3.43-2.24a3.72,3.72,0,0,1-.19-.95c0-.35,0-.93,0-1.72s0-1.32.05-1.65a4.47,4.47,0,0,1,.19-.94,3.12,3.12,0,0,1,1.25-1.74,3.83,3.83,0,0,1,2.18-.58A5.16,5.16,0,0,1,299.23,35.61Z"/><path class="cls-1" d="M305.56,38.15a2.49,2.49,0,0,1,1,1.37,4.64,4.64,0,0,1,.16.74,7.16,7.16,0,0,1,0,1.85,4.64,4.64,0,0,1-.16.74,2.49,2.49,0,0,1-1,1.37,3.06,3.06,0,0,1-1.76.49,3.09,3.09,0,0,1-1.77-.49,2.43,2.43,0,0,1-1-1.37,4.67,4.67,0,0,1-.17-.74,7.16,7.16,0,0,1,0-1.85,4.67,4.67,0,0,1,.17-.74,2.43,2.43,0,0,1,1-1.37,3.09,3.09,0,0,1,1.77-.49A3.06,3.06,0,0,1,305.56,38.15ZM303,39.29a1.21,1.21,0,0,0-.47.65,2.5,2.5,0,0,0-.11.53,6.83,6.83,0,0,0,0,.72,7.1,7.1,0,0,0,0,.72,2.29,2.29,0,0,0,.11.52,1.39,1.39,0,0,0,2.06.65,1.33,1.33,0,0,0,.47-.65,2.31,2.31,0,0,0,.12-.52c0-.19,0-.43,0-.72s0-.54,0-.72a2.53,2.53,0,0,0-.12-.53,1.2,1.2,0,0,0-.46-.65,1.29,1.29,0,0,0-.8-.23A1.32,1.32,0,0,0,303,39.29Z"/><path class="cls-1" d="M310.26,35.18v7.39a.64.64,0,0,0,.14.48.62.62,0,0,0,.45.14h.3c.1,0,.14,0,.14.14v1.13a.12.12,0,0,1-.14.14h-.61a1.8,1.8,0,0,1-1.41-.49,2.18,2.18,0,0,1-.44-1.48V36.49a.07.07,0,0,0-.08-.08H308a.13.13,0,0,1-.14-.14V35.18A.13.13,0,0,1,308,35h2.12A.13.13,0,0,1,310.26,35.18Z"/><path class="cls-1" d="M314.44,35.18v7.39a.69.69,0,0,0,.14.48.65.65,0,0,0,.45.14h.31a.12.12,0,0,1,.14.14v1.13a.13.13,0,0,1-.14.14h-.62a1.78,1.78,0,0,1-1.4-.49,2.13,2.13,0,0,1-.44-1.48V36.49c0-.05,0-.08-.09-.08h-.6a.13.13,0,0,1-.14-.14V35.18a.13.13,0,0,1,.14-.14h2.11A.12.12,0,0,1,314.44,35.18Z"/><path class="cls-1" d="M321.33,38.15a2.59,2.59,0,0,1,1,1.37,4,4,0,0,1,.17.81,9.88,9.88,0,0,1,.05,1.22c0,.09-.05.14-.15.14h-4.16a.07.07,0,0,0-.08.08,1.67,1.67,0,0,0,.66,1.28,1.68,1.68,0,0,0,.95.26,2,2,0,0,0,1.58-.64.14.14,0,0,1,.21,0l.83.73a.12.12,0,0,1,0,.19,3,3,0,0,1-1.16.84,4,4,0,0,1-1.61.31,3.15,3.15,0,0,1-1.8-.49,2.55,2.55,0,0,1-1-1.38,5.72,5.72,0,0,1-.23-1.65,5.5,5.5,0,0,1,.22-1.67,2.48,2.48,0,0,1,1-1.37,3.07,3.07,0,0,1,1.75-.49A3,3,0,0,1,321.33,38.15Zm-2.59,1.07a1.19,1.19,0,0,0-.49.63,2,2,0,0,0-.08.58.07.07,0,0,0,.08.08h2.65a.07.07,0,0,0,.08-.08,2,2,0,0,0-.08-.58,1.24,1.24,0,0,0-.49-.63,1.63,1.63,0,0,0-1.67,0Z"/><path class="cls-1" d="M328.22,38.46h0V38a.13.13,0,0,1,.14-.14h2.12a.13.13,0,0,1,.14.14V39a.12.12,0,0,1-.14.14h-.6a.08.08,0,0,0-.09.09v4.87a3.12,3.12,0,0,1-.8,2.28,3.18,3.18,0,0,1-2.35.81,3.74,3.74,0,0,1-1.39-.27,2.63,2.63,0,0,1-1.06-.73.14.14,0,0,1,0-.1s0-.06.06-.1l.82-.83.11-.05a.19.19,0,0,1,.1.05,2.08,2.08,0,0,0,1.47.63c1,0,1.51-.53,1.51-1.61v-.63h0a1.91,1.91,0,0,1-1.75.79,2.27,2.27,0,0,1-2.3-1.64A4.08,4.08,0,0,1,324,42,8.39,8.39,0,0,1,324,41a7.94,7.94,0,0,1,.05-.94,4.45,4.45,0,0,1,.17-.77,2.26,2.26,0,0,1,2.3-1.65A1.9,1.9,0,0,1,328.22,38.46Zm-2.53,1.45a3.26,3.26,0,0,0-.16,1.11,3.08,3.08,0,0,0,.16,1.1,1.14,1.14,0,0,0,1.19.87,1.16,1.16,0,0,0,1.2-.87,3.35,3.35,0,0,0,.15-1.1,3.55,3.55,0,0,0-.15-1.11,1.15,1.15,0,0,0-1.2-.85A1.13,1.13,0,0,0,325.69,39.91Z"/><path class="cls-1" d="M336.62,38.15a2.64,2.64,0,0,1,1,1.37,4,4,0,0,1,.17.81,9.88,9.88,0,0,1,.05,1.22c0,.09-.05.14-.15.14h-4.16c-.06,0-.08,0-.08.08a1.63,1.63,0,0,0,.09.52,1.51,1.51,0,0,0,.56.76,1.74,1.74,0,0,0,1,.26,2,2,0,0,0,1.58-.64.14.14,0,0,1,.21,0l.82.73a.12.12,0,0,1,0,.19,3,3,0,0,1-1.16.84,4,4,0,0,1-1.61.31,3.15,3.15,0,0,1-1.8-.49,2.55,2.55,0,0,1-1-1.38,5.39,5.39,0,0,1-.24-1.65,5.48,5.48,0,0,1,.23-1.67,2.43,2.43,0,0,1,1-1.37,3.39,3.39,0,0,1,3.51,0ZM334,39.22a1.19,1.19,0,0,0-.49.63,1.73,1.73,0,0,0-.08.58s0,.08.08.08h2.65a.07.07,0,0,0,.08-.08,2,2,0,0,0-.08-.58,1.24,1.24,0,0,0-.49-.63,1.63,1.63,0,0,0-1.67,0Z"/><path class="cls-1" d="M347.43,38.15a2.49,2.49,0,0,1,1,1.37,6.11,6.11,0,0,1,.17.74,8.58,8.58,0,0,1,0,1.85,6.11,6.11,0,0,1-.17.74,2.49,2.49,0,0,1-1,1.37,3,3,0,0,1-1.75.49,3.09,3.09,0,0,1-1.77-.49,2.49,2.49,0,0,1-1-1.37,6.11,6.11,0,0,1-.17-.74,8.58,8.58,0,0,1,0-1.85,6.11,6.11,0,0,1,.17-.74,2.49,2.49,0,0,1,1-1.37,3.09,3.09,0,0,1,1.77-.49A3,3,0,0,1,347.43,38.15Zm-2.56,1.14a1.27,1.27,0,0,0-.47.65,3.33,3.33,0,0,0-.11.53,6.83,6.83,0,0,0,0,.72,7.1,7.1,0,0,0,0,.72,3,3,0,0,0,.11.52,1.34,1.34,0,0,0,.48.65,1.29,1.29,0,0,0,.8.23,1.24,1.24,0,0,0,.78-.23,1.34,1.34,0,0,0,.48-.65,3,3,0,0,0,.11-.52,7.1,7.1,0,0,0,0-.72,6.83,6.83,0,0,0,0-.72,3.33,3.33,0,0,0-.11-.53,1.31,1.31,0,0,0-.46-.65,1.52,1.52,0,0,0-1.61,0Z"/><path class="cls-1" d="M353.74,35.18V36.3a.13.13,0,0,1-.14.14h-.43a1,1,0,0,0-.69.16,1,1,0,0,0-.17.67v.46c0,.05,0,.08.09.08h1.2a.13.13,0,0,1,.14.14V39a.12.12,0,0,1-.14.14h-1.2a.08.08,0,0,0-.09.09V43.1a.08.08,0,0,0,.09.09h.74a.12.12,0,0,1,.14.14v1.09a.13.13,0,0,1-.14.14h-3.08a.13.13,0,0,1-.14-.14V43.33a.12.12,0,0,1,.14-.14h.6a.08.08,0,0,0,.09-.09V39.27a.08.08,0,0,0-.09-.09h-.45a.12.12,0,0,1-.14-.14V38a.13.13,0,0,1,.14-.14h.45c.06,0,.09,0,.09-.08v-.44a2.25,2.25,0,0,1,.56-1.7A2.28,2.28,0,0,1,353,35h.61A.13.13,0,0,1,353.74,35.18Z"/><path class="cls-1" d="M365,35.61a.23.23,0,0,1,.12.2V37.7a.13.13,0,0,1-.14.14h-1.26a.12.12,0,0,1-.14-.14v-1a.12.12,0,0,0-.07-.11,2.84,2.84,0,0,0-.56-.18,3,3,0,0,0-.66-.07,2.24,2.24,0,0,0-1.29.31,1.82,1.82,0,0,0-.66,1,4.38,4.38,0,0,0-.14.75c0,.28,0,.76,0,1.42s0,1.16,0,1.44a3,3,0,0,0,.13.73,1.83,1.83,0,0,0,.65.94,2.24,2.24,0,0,0,1.31.32,3.2,3.2,0,0,0,1.22-.22.15.15,0,0,0,.07-.12v-1c0-.1,0-.15.14-.15h1.26c.09,0,.14,0,.14.15v1.9A.21.21,0,0,1,365,44a5.3,5.3,0,0,1-2.87.73c-1.82,0-3-.74-3.43-2.24a4.22,4.22,0,0,1-.18-.95c0-.35,0-.93,0-1.72s0-1.32.05-1.65a4.47,4.47,0,0,1,.19-.94,3.15,3.15,0,0,1,1.24-1.74,3.89,3.89,0,0,1,2.19-.58A5.1,5.1,0,0,1,365,35.61Z"/><path class="cls-1" d="M371.29,38.15a2.43,2.43,0,0,1,1,1.37,3.78,3.78,0,0,1,.17.74,7.16,7.16,0,0,1,0,1.85,3.78,3.78,0,0,1-.17.74,2.43,2.43,0,0,1-1,1.37,3.42,3.42,0,0,1-3.53,0,2.43,2.43,0,0,1-1-1.37,4.67,4.67,0,0,1-.17-.74,7.16,7.16,0,0,1,0-1.85,4.67,4.67,0,0,1,.17-.74,2.43,2.43,0,0,1,1-1.37,3.42,3.42,0,0,1,3.53,0Zm-2.56,1.14a1.21,1.21,0,0,0-.47.65,2.5,2.5,0,0,0-.11.53,6.83,6.83,0,0,0,0,.72,7.1,7.1,0,0,0,0,.72,2.29,2.29,0,0,0,.11.52,1.25,1.25,0,0,0,1.27.88,1.29,1.29,0,0,0,.79-.23,1.33,1.33,0,0,0,.47-.65,1.86,1.86,0,0,0,.11-.52,7.1,7.1,0,0,0,0-.72,6.83,6.83,0,0,0,0-.72,2,2,0,0,0-.11-.53,1.2,1.2,0,0,0-.46-.65,1.29,1.29,0,0,0-.8-.23A1.32,1.32,0,0,0,368.73,39.29Z"/><path class="cls-1" d="M383.7,38.35a2.55,2.55,0,0,1,.64,1.81V43.1a.08.08,0,0,0,.09.09H385c.1,0,.14,0,.14.14v1.09a.12.12,0,0,1-.14.14h-2.91a.13.13,0,0,1-.14-.14V43.33a.12.12,0,0,1,.14-.14h.6a.08.08,0,0,0,.09-.09V40.53a1.61,1.61,0,0,0-.33-1.07,1.1,1.1,0,0,0-.93-.4,1.12,1.12,0,0,0-.93.4,1.61,1.61,0,0,0-.33,1.07V43.1c0,.06,0,.09.08.09h.6c.1,0,.14,0,.14.14v1.09a.12.12,0,0,1-.14.14H378a.13.13,0,0,1-.14-.14V43.33a.12.12,0,0,1,.14-.14h.6a.08.08,0,0,0,.09-.09V40.53a1.66,1.66,0,0,0-.32-1.07,1.29,1.29,0,0,0-1.87,0,1.61,1.61,0,0,0-.33,1.07V43.1c0,.06,0,.09.08.09h.6c.1,0,.14,0,.14.14v1.09a.12.12,0,0,1-.14.14h-2.94a.13.13,0,0,1-.14-.14V43.33a.12.12,0,0,1,.14-.14h.61c.05,0,.08,0,.08-.09V39.27c0-.06,0-.09-.08-.09h-.61a.12.12,0,0,1-.14-.14V38a.13.13,0,0,1,.14-.14H376a.13.13,0,0,1,.14.14v.49h0a1.79,1.79,0,0,1,.69-.57,2.47,2.47,0,0,1,1.06-.21,2.25,2.25,0,0,1,1.05.23,2,2,0,0,1,.79.66h0a2.78,2.78,0,0,1,2.13-.89A2.34,2.34,0,0,1,383.7,38.35Z"/><path class="cls-1" d="M391.86,38.07a2.34,2.34,0,0,1,.87,1.21,5.71,5.71,0,0,1,.18.82,9.84,9.84,0,0,1,0,2.17,5.71,5.71,0,0,1-.18.82,2.34,2.34,0,0,1-.87,1.21,2.5,2.5,0,0,1-1.47.41,2,2,0,0,1-1.79-.79h0v1.7c0,.06,0,.09.08.09h.6c.1,0,.14,0,.14.14v1.09a.12.12,0,0,1-.14.14h-2.94a.13.13,0,0,1-.14-.14V45.85a.12.12,0,0,1,.14-.14h.6a.08.08,0,0,0,.09-.09V39.27a.08.08,0,0,0-.09-.09h-.6a.12.12,0,0,1-.14-.14V38a.13.13,0,0,1,.14-.14h2.12a.13.13,0,0,1,.14.14v.51h0a2,2,0,0,1,1.79-.8A2.5,2.5,0,0,1,391.86,38.07Zm-2.67,1.21a1.2,1.2,0,0,0-.46.65,5.7,5.7,0,0,0,0,2.51,1.16,1.16,0,0,0,.46.65,1.55,1.55,0,0,0,1.59,0,1.2,1.2,0,0,0,.45-.65,5.7,5.7,0,0,0,0-2.51,1.24,1.24,0,0,0-.45-.65,1.55,1.55,0,0,0-1.59,0Z"/><path class="cls-1" d="M400.49,38V43.1c0,.06,0,.09.08.09h.6c.1,0,.14,0,.14.14v1.09a.12.12,0,0,1-.14.14h-2.11a.12.12,0,0,1-.14-.14v-.49h0a2.07,2.07,0,0,1-1.73.78,2.15,2.15,0,0,1-1.69-.7,2.62,2.62,0,0,1-.62-1.8V39.27a.08.08,0,0,0-.09-.09h-.6A.12.12,0,0,1,394,39V38a.13.13,0,0,1,.14-.14h2.12a.13.13,0,0,1,.14.14v3.89a1.66,1.66,0,0,0,.31,1.07,1.1,1.1,0,0,0,.93.4,1.12,1.12,0,0,0,.92-.4,1.57,1.57,0,0,0,.33-1V39.27a.08.08,0,0,0-.09-.09h-.61c-.1,0-.14,0-.14-.14V38a.12.12,0,0,1,.14-.14h2.13A.13.13,0,0,1,400.49,38Z"/><path class="cls-1" d="M404.63,35.88v1.85a.07.07,0,0,0,.08.08h.9a.13.13,0,0,1,.14.14V39a.12.12,0,0,1-.14.14h-.9s-.08,0-.08.09v3.29a.67.67,0,0,0,.15.49.71.71,0,0,0,.48.14h.35a.12.12,0,0,1,.14.14v1.13a.13.13,0,0,1-.14.14h-.67a1.89,1.89,0,0,1-1.44-.48,2.17,2.17,0,0,1-.44-1.49V39.27c0-.06,0-.09-.08-.09h-.45a.12.12,0,0,1-.14-.14V38a.13.13,0,0,1,.14-.14H403a.07.07,0,0,0,.08-.08V35.88a.13.13,0,0,1,.14-.14h1.29A.13.13,0,0,1,404.63,35.88Z"/><path class="cls-1" d="M409.46,38V43.1c0,.06,0,.09.08.09h.61a.12.12,0,0,1,.14.14v1.09a.13.13,0,0,1-.14.14h-2.94a.12.12,0,0,1-.14-.14V43.33c0-.1,0-.14.14-.14h.6c.05,0,.08,0,.08-.09V39.27c0-.06,0-.09-.08-.09h-.6c-.1,0-.14,0-.14-.14V38a.12.12,0,0,1,.14-.14h2.11A.13.13,0,0,1,409.46,38Zm0-2.77V36.4a.13.13,0,0,1-.14.14H408a.13.13,0,0,1-.14-.14V35.18A.13.13,0,0,1,408,35h1.29A.13.13,0,0,1,409.46,35.18Z"/><path class="cls-1" d="M417.2,38.36a2.58,2.58,0,0,1,.63,1.8V43.1a.08.08,0,0,0,.09.09h.57a.12.12,0,0,1,.14.14v1.09a.13.13,0,0,1-.14.14h-2.91a.12.12,0,0,1-.14-.14V43.33c0-.1,0-.14.14-.14h.6c.06,0,.08,0,.08-.09V40.53a1.61,1.61,0,0,0-.32-1.07,1.11,1.11,0,0,0-.94-.4,1.13,1.13,0,0,0-.93.4,1.61,1.61,0,0,0-.33,1.07V43.1a.08.08,0,0,0,.09.09h.6a.12.12,0,0,1,.14.14v1.09a.13.13,0,0,1-.14.14h-2.94a.13.13,0,0,1-.14-.14V43.33a.12.12,0,0,1,.14-.14h.6a.08.08,0,0,0,.09-.09V39.27a.08.08,0,0,0-.09-.09h-.6a.12.12,0,0,1-.14-.14V38a.13.13,0,0,1,.14-.14h2.11a.12.12,0,0,1,.14.14v.49h0a1.76,1.76,0,0,1,.68-.57,2.4,2.4,0,0,1,1.05-.21A2.2,2.2,0,0,1,417.2,38.36Z"/><path class="cls-1" d="M424.09,38.46h0V38a.13.13,0,0,1,.14-.14h2.12a.13.13,0,0,1,.14.14V39a.12.12,0,0,1-.14.14h-.6a.08.08,0,0,0-.09.09v4.87a3.12,3.12,0,0,1-.8,2.28,3.18,3.18,0,0,1-2.35.81,3.74,3.74,0,0,1-1.39-.27,2.63,2.63,0,0,1-1.06-.73.14.14,0,0,1,0-.1s0-.06.06-.1l.82-.83.11-.05a.19.19,0,0,1,.1.05,2.08,2.08,0,0,0,1.47.63c1,0,1.51-.53,1.51-1.61v-.63h0a1.91,1.91,0,0,1-1.75.79,2.27,2.27,0,0,1-2.3-1.64,4.08,4.08,0,0,1-.17-.77,8.39,8.39,0,0,1-.05-.95,7.94,7.94,0,0,1,.05-.94,4.45,4.45,0,0,1,.17-.77,2.26,2.26,0,0,1,2.3-1.65A1.9,1.9,0,0,1,424.09,38.46Zm-2.53,1.45A3.26,3.26,0,0,0,421.4,41a3.08,3.08,0,0,0,.16,1.1,1.14,1.14,0,0,0,1.19.87,1.16,1.16,0,0,0,1.2-.87,3.35,3.35,0,0,0,.15-1.1,3.55,3.55,0,0,0-.15-1.11,1.15,1.15,0,0,0-1.2-.85A1.13,1.13,0,0,0,421.56,39.91Z"/><path class="cls-1" d="M218.52,59.92a4.5,4.5,0,0,0-4.17-2.11c-2,0-3.17.9-3.17,2.53,0,1.84,1.46,2.57,4.15,3.16,3.89.84,5.9,2.3,5.9,5.77,0,2.88-1.93,5.54-6.58,5.54-3.3,0-5.62-1-7.22-3.16L210,69.88a5.15,5.15,0,0,0,4.51,2.1c2.66,0,3.5-1.17,3.5-2.57s-.87-2.49-4.23-3.22c-3.73-.79-5.83-2.58-5.83-5.85,0-2.92,1.91-5.35,6.44-5.35,3.08,0,5.24,1,6.61,3.16Z"/><path class="cls-1" d="M235,72.43c-.93,1.65-2.58,2.38-5,2.38-3.92,0-6.16-2.52-6.16-6.33v-1.9c0-4,2.27-6.27,6.28-6.27A5.6,5.6,0,0,1,235,62.57l-2.3,1.6a3.1,3.1,0,0,0-2.63-1.26c-2.18,0-3.25,1.4-3.25,3.81v1.62c0,2.19.79,3.89,3.25,3.89a2.82,2.82,0,0,0,2.66-1.37Z"/><path class="cls-1" d="M237.45,55.24h3v6.52a3.82,3.82,0,0,1,3.42-1.45c2.88,0,5.09,1.45,5.09,5.49v8.76h-3V66.13c0-2.46-1.11-3.16-2.65-3.16-1.85,0-2.89,1.26-2.89,3.13v8.46h-3Z"/><path class="cls-1" d="M264,68.43c0,3.72-1.82,6.38-5.94,6.38-3.92,0-6-2.52-6-6.38V66.66c0-4.11,2.18-6.35,6-6.35S264,62.55,264,66.66Zm-3-.09V66.72c0-2.44-1-3.81-3-3.81s-3,1.4-3,3.81v1.62c0,2.19.73,3.89,3,3.89S261,70.53,261,68.34Z"/><path class="cls-1" d="M278.41,68.43c0,3.72-1.82,6.38-5.94,6.38-3.92,0-6-2.52-6-6.38V66.66c0-4.11,2.18-6.35,6-6.35s5.94,2.24,5.94,6.35Zm-3-.09V66.72c0-2.44-1-3.81-3-3.81s-3,1.4-3,3.81v1.62c0,2.19.73,3.89,3,3.89S275.44,70.53,275.44,68.34Z"/><path class="cls-1" d="M281.52,55.24h3V69.46c0,1.52.28,2.47,2.13,2.47v2.63c-3.64,0-5.12-1.18-5.12-4.4Z"/><path class="cls-1" d="M308.73,68.43c0,3.72-1.82,6.38-5.93,6.38-3.92,0-6-2.52-6-6.38V66.66c0-4.11,2.19-6.35,6-6.35s5.93,2.24,5.93,6.35Zm-3-.09V66.72c0-2.44-1-3.81-3-3.81s-3,1.4-3,3.81v1.62c0,2.19.73,3.89,3,3.89C304.92,72.23,305.76,70.53,305.76,68.34Z"/><path class="cls-1" d="M312.51,60.56v-.87c0-3.3,1.21-4.45,4.57-4.45H318v2.69h-.65c-1.57,0-1.82.7-1.82,2.32v.31H318v2.58h-2.47V74.56h-3V63.14h-1.79V60.56Z"/><path class="cls-1" d="M338.94,61.23c-.5-2.35-1.76-3.42-3.89-3.42-2.57,0-4,1.69-4,5.86v2.46c0,4.12,1.4,5.85,4,5.85,2.21,0,3.39-1.06,3.89-3.41h3.11c-.64,4.34-3.16,6.24-7,6.24-4.31,0-7.22-2.6-7.22-8.68V63.67c0-6.08,2.91-8.68,7.22-8.68,3.84,0,6.39,2,7,6.24Z"/><path class="cls-1" d="M356.33,68.43c0,3.72-1.82,6.38-5.93,6.38-3.92,0-6-2.52-6-6.38V66.66c0-4.11,2.19-6.35,6-6.35s5.93,2.24,5.93,6.35Zm-3-.09V66.72c0-2.44-1-3.81-3-3.81s-3,1.4-3,3.81v1.62c0,2.19.73,3.89,3,3.89S353.36,70.53,353.36,68.34Z"/><path class="cls-1" d="M359.44,60.56h2.94v1.26a3.73,3.73,0,0,1,3.28-1.51,4.51,4.51,0,0,1,4,2,4.91,4.91,0,0,1,4.09-2c3,0,4.84,1.84,4.84,5.49v8.76h-3V66.13c0-2.29-1-3.16-2.5-3.16s-2.54,1.12-2.6,3v8.6h-3V66.13c0-2.38-1-3.16-2.46-3.16s-2.63,1.17-2.63,3.13v8.46h-3Z"/><path class="cls-1" d="M394.19,68.48c0,3.64-1.79,6.33-5.52,6.33a4.33,4.33,0,0,1-3.39-1.15v6.22h-3V60.56h3v1.12a4.14,4.14,0,0,1,3.42-1.37c3.36,0,5.49,2.26,5.49,6.27Zm-3-.14V66.72c0-2.44-1-3.81-3-3.81s-2.94,1.35-3,3.64v1.79c0,2.19.7,3.89,3,3.89S391.22,70.53,391.22,68.34Z"/><path class="cls-1" d="M408.83,74.56h-2.94V73.3c-.64,1-1.48,1.51-3.44,1.51-2.89,0-5.13-1.48-5.13-5.51V60.56h3V69c0,2.49,1.12,3.19,2.69,3.19,1.85,0,2.85-1.23,2.85-3.16V60.56h3Z"/><path class="cls-1" d="M411.44,60.56h1.79V57.48h3v3.08h3v2.58h-3v6.41c0,1.62.25,2.32,1.82,2.32h1.14v2.69h-1.37c-3.36,0-4.56-1.15-4.56-4.45v-7h-1.79Z"/><path class="cls-1" d="M426.64,66.3h3V65.12c0-1.76-.67-2.24-2.77-2.24-1.51,0-2.27.17-2.94,1.26l-2.16-1.51c1-1.65,2.52-2.32,5.3-2.32,3.58,0,5.51,1.12,5.51,4.84v9.41h-2.94V73.27c-.67,1.09-1.54,1.54-3.24,1.54-3.09,0-5-1.57-5-4.37C421.43,67.45,423.64,66.3,426.64,66.3Zm3,2.3h-2.8c-1.76,0-2.49.61-2.49,1.84s.95,1.82,2.38,1.82c1.82,0,2.91-.56,2.91-3Z"/><path class="cls-1" d="M435.18,60.56H437V57.48h3v3.08h3v2.58h-3v6.41c0,1.62.25,2.32,1.82,2.32h1.15v2.69h-1.38c-3.36,0-4.56-1.15-4.56-4.45v-7h-1.79Z"/><path class="cls-1" d="M446.15,55.24h3.28v3h-3.28Zm.14,5.32h3v14h-3Z"/><path class="cls-1" d="M464.72,68.43c0,3.72-1.82,6.38-5.94,6.38-3.92,0-6-2.52-6-6.38V66.66c0-4.11,2.18-6.35,6-6.35s5.94,2.24,5.94,6.35Zm-3-.09V66.72c0-2.44-1-3.81-3-3.81s-3,1.4-3,3.81v1.62c0,2.19.72,3.89,3,3.89S461.75,70.53,461.75,68.34Z"/><path class="cls-1" d="M467.83,60.56h2.94v1.26a3.93,3.93,0,0,1,3.47-1.51c2.88,0,5.09,1.45,5.09,5.49v8.76h-3V66.13c0-2.46-1.12-3.16-2.66-3.16-1.85,0-2.89,1.26-2.89,3.13v8.46h-3Z"/><path class="cls-1" d="M487.57,66.3h3V65.12c0-1.76-.67-2.24-2.77-2.24-1.51,0-2.27.17-2.94,1.26l-2.16-1.51c1-1.65,2.52-2.32,5.29-2.32,3.59,0,5.52,1.12,5.52,4.84v9.41h-2.94V73.27c-.67,1.09-1.54,1.54-3.25,1.54-3.08,0-5-1.57-5-4.37C482.36,67.45,484.57,66.3,487.57,66.3Zm3,2.3h-2.8c-1.76,0-2.49.61-2.49,1.84s.95,1.82,2.38,1.82c1.82,0,2.91-.56,2.91-3Z"/><path class="cls-1" d="M497.23,55.24h3V69.46c0,1.52.28,2.47,2.13,2.47v2.63c-3.64,0-5.12-1.18-5.12-4.4Z"/><path class="cls-1" d="M218.52,89.92a4.5,4.5,0,0,0-4.17-2.11c-2,0-3.17.9-3.17,2.52,0,1.85,1.46,2.58,4.15,3.17,3.89.84,5.9,2.29,5.9,5.77,0,2.88-1.93,5.54-6.58,5.54-3.3,0-5.62-1-7.22-3.16L210,99.88a5.17,5.17,0,0,0,4.51,2.1c2.66,0,3.5-1.17,3.5-2.57s-.87-2.49-4.23-3.22c-3.73-.79-5.83-2.58-5.83-5.86,0-2.91,1.91-5.34,6.44-5.34,3.08,0,5.24,1,6.61,3.16Z"/><path class="cls-1" d="M235,102.43c-.93,1.65-2.58,2.38-5,2.38-3.92,0-6.16-2.52-6.16-6.33v-1.9c0-4,2.27-6.27,6.28-6.27A5.6,5.6,0,0,1,235,92.57l-2.3,1.6a3.1,3.1,0,0,0-2.63-1.26c-2.18,0-3.25,1.4-3.25,3.81v1.62c0,2.19.79,3.89,3.25,3.89a2.82,2.82,0,0,0,2.66-1.37Z"/><path class="cls-1" d="M237.73,85.24H241v3.05h-3.27Zm.14,5.32h3v14h-3Z"/><path class="cls-1" d="M255.53,102.43c-1,1.71-2.54,2.38-5,2.38-4,0-6.13-2.6-6.13-6.33v-1.9c0-4.12,2-6.27,5.68-6.27,3.84,0,5.66,2.29,5.66,6.44v1.54h-8.37v0c0,2.19.84,3.89,3,3.89a2.89,2.89,0,0,0,2.88-1.37ZM247.39,96h5.34c-.11-2-.95-3.08-2.66-3.08S247.53,94.09,247.39,96Z"/><path class="cls-1" d="M259.12,90.56h2.94v1.26a3.93,3.93,0,0,1,3.47-1.51c2.88,0,5.1,1.45,5.1,5.48v8.77h-3V96.13c0-2.46-1.12-3.16-2.66-3.16-1.85,0-2.89,1.26-2.89,3.13v8.46h-3Z"/><path class="cls-1" d="M284.9,102.43c-.92,1.65-2.57,2.38-5,2.38-3.92,0-6.16-2.52-6.16-6.33v-1.9c0-4,2.27-6.27,6.27-6.27a5.59,5.59,0,0,1,4.87,2.26l-2.29,1.6A3.1,3.1,0,0,0,280,92.91c-2.19,0-3.25,1.4-3.25,3.81v1.62c0,2.19.78,3.89,3.25,3.89a2.84,2.84,0,0,0,2.66-1.37Z"/><path class="cls-1" d="M297.76,102.43c-1,1.71-2.55,2.38-5,2.38-4,0-6.14-2.6-6.14-6.33v-1.9c0-4.12,2-6.27,5.69-6.27,3.83,0,5.65,2.29,5.65,6.44v1.54h-8.37v0c0,2.19.84,3.89,3.05,3.89a2.9,2.9,0,0,0,2.89-1.37ZM289.61,96H295c-.12-2-1-3.08-2.66-3.08S289.75,94.09,289.61,96Z"/><path class="cls-1" d="M313.35,96.3h3V95.12c0-1.76-.67-2.24-2.78-2.24-1.51,0-2.26.17-2.93,1.26l-2.16-1.51c1-1.65,2.52-2.32,5.29-2.32,3.58,0,5.52,1.12,5.52,4.84v9.41h-2.94v-1.29c-.67,1.09-1.54,1.54-3.25,1.54-3.08,0-5-1.57-5-4.37C308.15,97.45,310.36,96.3,313.35,96.3Zm3,2.29h-2.8c-1.77,0-2.5.62-2.5,1.85s1,1.82,2.38,1.82c1.83,0,2.92-.56,2.92-3Z"/><path class="cls-1" d="M323,90.56H326v1.26a4,4,0,0,1,3.47-1.51c2.89,0,5.1,1.45,5.1,5.48v8.77h-3V96.13c0-2.46-1.12-3.16-2.66-3.16C327,93,326,94.23,326,96.1v8.46h-3Z"/><path class="cls-1" d="M346.59,85.24h3v19.32h-3v-1a4.42,4.42,0,0,1-3.36,1.23c-3.73,0-5.57-2.66-5.57-6.33v-1.9c0-4,2.18-6.27,5.57-6.27a4.49,4.49,0,0,1,3.36,1.23Zm0,13.1V96.55c0-2.3-1-3.64-3-3.64s-3,1.37-3,3.81v1.62c0,2.19.84,3.89,3,3.89S346.59,100.53,346.59,98.34Z"/><path class="cls-1" d="M373.16,85.24v2.83h-8.6v5.09h7.76V96h-7.76v5.8h8.6v2.8H361.32V85.24Z"/><path class="cls-1" d="M376.21,90.56h2.94v1.26a4,4,0,0,1,3.47-1.51c2.89,0,5.1,1.45,5.1,5.48v8.77h-3V96.13c0-2.46-1.12-3.16-2.66-3.16-1.85,0-2.88,1.26-2.88,3.13v8.46h-3Z"/><path class="cls-1" d="M399.79,90.56h3v13.72c0,4.31-2.46,5.77-6.1,5.77-2.52,0-4.09-.65-5.21-2.44l2.1-1.51a3.24,3.24,0,0,0,3,1.4c2.24,0,3.22-1,3.22-3.22v-.65a4.45,4.45,0,0,1-3.36,1.18c-3.73,0-5.58-2.66-5.58-6.33v-1.9c0-4,2.19-6.27,5.58-6.27a4.42,4.42,0,0,1,3.36,1.23Zm0,7.78V96.72c0-2.41-1-3.81-3-3.81s-3,1.37-3,3.81v1.62c0,2.19.84,3.89,3,3.89S399.79,100.53,399.79,98.34Z"/><path class="cls-1" d="M406.76,85.24H410v3.05h-3.27Zm.14,5.32h3v14h-3Z"/><path class="cls-1" d="M414,90.56H417v1.26a3.94,3.94,0,0,1,3.47-1.51c2.89,0,5.1,1.45,5.1,5.48v8.77h-3V96.13c0-2.46-1.12-3.16-2.66-3.16C418,93,417,94.23,417,96.1v8.46h-3Z"/><path class="cls-1" d="M439.8,102.43c-1,1.71-2.55,2.38-5,2.38-4,0-6.14-2.6-6.14-6.33v-1.9c0-4.12,2-6.27,5.69-6.27,3.83,0,5.65,2.29,5.65,6.44v1.54h-8.37v0c0,2.19.84,3.89,3.05,3.89a2.9,2.9,0,0,0,2.89-1.37ZM431.65,96H437c-.11-2-.95-3.08-2.66-3.08S431.79,94.09,431.65,96Z"/><path class="cls-1" d="M453.94,102.43c-1,1.71-2.55,2.38-5,2.38-4,0-6.14-2.6-6.14-6.33v-1.9c0-4.12,2-6.27,5.69-6.27,3.83,0,5.65,2.29,5.65,6.44v1.54h-8.37v0c0,2.19.84,3.89,3.05,3.89a2.9,2.9,0,0,0,2.89-1.37ZM445.79,96h5.35c-.11-2-.95-3.08-2.66-3.08S445.93,94.09,445.79,96Z"/><path class="cls-1" d="M465.11,94.06a2.33,2.33,0,0,0-2-1.09c-1.51,0-2.57,1.12-2.57,3.13v8.46h-3v-14h2.94v1.26a3.5,3.5,0,0,1,3.14-1.51,4.25,4.25,0,0,1,3.89,2.07Z"/><path class="cls-1" d="M469.59,85.24h3.28v3.05h-3.28Zm.14,5.32h3v14h-3Z"/><path class="cls-1" d="M476.84,90.56h2.94v1.26a4,4,0,0,1,3.47-1.51c2.89,0,5.1,1.45,5.1,5.48v8.77h-3V96.13c0-2.46-1.12-3.16-2.66-3.16-1.85,0-2.88,1.26-2.88,3.13v8.46h-3Z"/><path class="cls-1" d="M500.42,90.56h3v13.72c0,4.31-2.46,5.77-6.1,5.77-2.52,0-4.09-.65-5.21-2.44l2.1-1.51a3.24,3.24,0,0,0,3,1.4c2.24,0,3.22-1,3.22-3.22v-.65a4.45,4.45,0,0,1-3.36,1.18c-3.73,0-5.58-2.66-5.58-6.33v-1.9c0-4,2.19-6.27,5.58-6.27a4.42,4.42,0,0,1,3.36,1.23Zm0,7.78V96.72c0-2.41-1-3.81-3-3.81s-3,1.37-3,3.81v1.62c0,2.19.84,3.89,3,3.89S500.42,100.53,500.42,98.34Z"/><rect class="cls-1" x="187.3" y="28.15" width="1.5" height="82.23" transform="translate(-0.1 0.27) rotate(-0.08)"/></svg>